<svg t="1594703524390" class="icon" viewBox="0 0 1024 1024" version="1.1" xmlns="http://www.w3.org/2000/svg" p-id="4207" width="200" height="200"><path d="M658.66 986.309h-40V51.202H104.667v935.107h-40V39.706c0-15.717 12.787-28.504 28.504-28.504h536.986c15.717 0 28.504 12.787 28.504 28.504v946.603z" fill="#ffffff" p-id="4208"></path><path d="M940.885 975.777h-40V410.516H658.66v560.476h-40V399.02c0-15.717 12.787-28.504 28.504-28.504h265.217c15.717 0 28.504 12.787 28.504 28.504v576.757zM325.503 302.572a2.842 2.842 0 0 1-2.834 2.834H204.934a2.842 2.842 0 0 1-2.834-2.834V184.841a2.842 2.842 0 0 1 2.834-2.834h117.735a2.842 2.842 0 0 1 2.834 2.834v117.731zM521.229 302.572a2.842 2.842 0 0 1-2.835 2.834H400.658a2.842 2.842 0 0 1-2.834-2.834V184.841a2.842 2.842 0 0 1 2.834-2.834h117.735a2.842 2.842 0 0 1 2.835 2.834v117.731zM325.503 482.301a2.842 2.842 0 0 1-2.834 2.834H204.934a2.842 2.842 0 0 1-2.834-2.834V364.564a2.842 2.842 0 0 1 2.834-2.834h117.735a2.842 2.842 0 0 1 2.834 2.834v117.737zM521.229 482.301a2.842 2.842 0 0 1-2.835 2.834H400.658a2.842 2.842 0 0 1-2.834-2.834V364.564a2.842 2.842 0 0 1 2.834-2.834h117.735a2.842 2.842 0 0 1 2.835 2.834v117.737zM325.503 662.028a2.842 2.842 0 0 1-2.834 2.835H204.934a2.842 2.842 0 0 1-2.834-2.835V544.286a2.842 2.842 0 0 1 2.834-2.835h117.735a2.842 2.842 0 0 1 2.834 2.835v117.742zM521.229 662.028a2.842 2.842 0 0 1-2.835 2.835H400.658a2.842 2.842 0 0 1-2.834-2.835V544.286a2.842 2.842 0 0 1 2.834-2.835h117.735a2.842 2.842 0 0 1 2.835 2.835v117.742zM325.503 841.755a2.842 2.842 0 0 1-2.834 2.835H204.934a2.842 2.842 0 0 1-2.834-2.835V724.013a2.842 2.842 0 0 1 2.834-2.835h117.735a2.842 2.842 0 0 1 2.834 2.835v117.742zM521.229 841.755a2.842 2.842 0 0 1-2.835 2.835H400.658a2.842 2.842 0 0 1-2.834-2.835V724.013a2.842 2.842 0 0 1 2.834-2.835h117.735a2.842 2.842 0 0 1 2.835 2.835v117.742z" fill="#ffffff" p-id="4209"></path><path d="M841.475 640.132a2.842 2.842 0 0 1-2.835 2.835H720.905a2.842 2.842 0 0 1-2.835-2.835V522.405a2.842 2.842 0 0 1 2.835-2.835H838.64a2.842 2.842 0 0 1 2.835 2.835v117.727z" fill="#ffffff" p-id="4210"></path><path d="M841.475 819.86a2.842 2.842 0 0 1-2.835 2.835H720.905a2.842 2.842 0 0 1-2.835-2.835V702.126a2.842 2.842 0 0 1 2.835-2.835H838.64a2.842 2.842 0 0 1 2.835 2.835V819.86z" fill="#ffffff" p-id="4211"></path><path d="M1024.609 975.777c0 11.043-8.35 19.998-18.652 19.998H19.261c-10.302 0-18.652-8.955-18.652-19.998 0-11.045 8.351-20.002 18.652-20.002h986.696c10.303 0 18.652 8.957 18.652 20.002z" fill="#ffffff" p-id="4212"></path></svg>