<svg t="1594776651374" class="icon" viewBox="0 0 1049 1024" version="1.1" xmlns="http://www.w3.org/2000/svg" p-id="1879" width="200" height="200"><path d="M254.869019 0.063717a49.189721 49.189721 0 0 0-48.934852 48.934852V140.241678a48.934852 48.934852 0 0 0 97.997138 0V48.998569A49.189721 49.189721 0 0 0 254.869019 0.063717zM626.468048 188.794226A49.189721 49.189721 0 0 0 675.4029 140.241678V48.998569a48.934852 48.934852 0 0 0-97.997138 0V140.241678a49.189721 49.189721 0 0 0 49.062286 48.552548zM818.894157 529.808973A231.038765 231.038765 0 1 0 1049.805488 760.847738a231.038765 231.038765 0 0 0-230.911331-231.038765z m0 404.604567A173.693236 173.693236 0 1 1 992.459959 760.847738a173.693236 173.693236 0 0 1-173.565802 173.565802z" fill="#ffffff" p-id="1880"></path><path d="M883.503453 157.445336a63.717255 63.717255 0 0 0-63.717254-63.717254h-116.220273v44.602078a78.627092 78.627092 0 0 1-157.12675 0v-44.602078H333.241242v44.602078a78.627092 78.627092 0 0 1-157.12675 0v-44.602078H63.717255a63.717255 63.717255 0 0 0-63.717255 63.717254v182.741087h883.503453zM535.224939 759.573393a268.886815 268.886815 0 0 1 348.278514-256.653102v-116.092838H0v547.96839a89.204157 89.204157 0 0 0 89.204157 89.204157h668.521436A268.504511 268.504511 0 0 1 535.224939 759.573393z m-117.876921 86.018294H153.940887a41.416216 41.416216 0 1 1 0-82.832431h263.407131a41.416216 41.416216 0 1 1 0 82.832431z m0-229.382117H153.940887a41.416216 41.416216 0 1 1 0-82.832431h263.407131a41.416216 41.416216 0 0 1 0 82.832431z" fill="#ffffff" p-id="1881"></path><path d="M933.075478 771.297368H834.696036V639.65752a25.486902 25.486902 0 0 0-50.973803 0v156.362143a30.329413 30.329413 0 0 0 0 18.860307 25.486902 25.486902 0 0 0 25.486901 24.339991h123.993778a34.025014 34.025014 0 0 0 0-67.922593z" fill="#ffffff" p-id="1882"></path></svg>