<svg t="1594886431087" class="icon" viewBox="0 0 1024 1024" version="1.1" xmlns="http://www.w3.org/2000/svg" p-id="3804" width="200" height="200"><path d="M850.076372 975.975669H270.071772c-47.954481 0-86.984392-39.017917-86.984391-86.98298V115.940383c0-47.965064 39.029911-86.976631 86.984391-86.97663h417.222397l249.764478 252.513322v607.515614c0 47.966475-39.017211 86.982981-86.982275 86.98298zM270.071772 74.965256c-22.584121 0-40.968777 18.378306-40.968777 40.975127V888.992689c0 22.596821 18.385361 40.980066 40.968777 40.980066h580.0046c22.59541 0 40.980772-18.383245 40.980772-40.980066V300.379608L668.08613 74.965256H270.071772z" fill="#509937" p-id="3805"></path><path d="M486.512871 585.258871V210.580051H108.882713v374.67882z" fill="#FFFFFF" p-id="3806"></path><path d="M435.274736 535.594829V208.685634H108.882713v326.910606h326.392023v-0.001411z m-210.698584-63.286904l-77.232205 0.648406 84.493781-99.853016L147.343947 271.342478l73.636695 0.179211 48.398981 57.197961 48.38628-57.197961 73.637401-0.179211-84.476142 101.760837 84.475437 99.853016-77.22515-0.6477-44.798532-53.974985-44.802765 53.974279z" fill="#509937" p-id="3807"></path><path d="M548.343509 289.320028h-61.830638v295.938843H283.558463v61.942821H548.343509z" fill="#FFFFFF" p-id="3808"></path><path d="M548.354798 289.320028h-61.829227v295.938843H283.564813v61.942821h264.789985zM687.361197 61.03336v174.682806c0 35.201568 28.797242 63.991048 63.979054 63.991048h171.780856L687.361197 61.03336z" fill="#509937" p-id="3809"></path></svg>