<svg t="1593585506237" class="icon" viewBox="0 0 1024 1024" version="1.1" xmlns="http://www.w3.org/2000/svg" p-id="1875" width="200" height="200"><path d="M51.2 102.4a102.4 102.4 0 0 1 102.4-102.4h716.8a102.4 102.4 0 0 1 102.4 102.4v819.2a102.4 102.4 0 0 1-102.4 102.4H153.6a102.4 102.4 0 0 1-102.4-102.4V102.4z m204.8 192c0 21.1968 17.2032 38.4 38.4 38.4h435.2a38.4 38.4 0 1 0 0-76.8h-435.2a38.4 38.4 0 0 0-38.4 38.4z m0 204.8c0 21.1968 17.2032 38.4 38.4 38.4h332.8a38.4 38.4 0 1 0 0-76.8h-332.8a38.4 38.4 0 0 0-38.4 38.4z m0 204.8c0 21.1968 17.2032 38.4 38.4 38.4h230.4a38.4 38.4 0 1 0 0-76.8h-230.4a38.4 38.4 0 0 0-38.4 38.4z" fill="#ffffff" p-id="1876"></path></svg>