<svg t="1594882889077" class="icon" viewBox="0 0 1024 1024" version="1.1" xmlns="http://www.w3.org/2000/svg" p-id="2669" width="200" height="200"><path d="M512 1023.18601A488.394277 488.394277 0 0 1 135.122417 227.103339a50.874404 50.874404 0 0 1 78.550079 63.491256 385.831479 385.831479 0 1 0 596.655008 0 50.874404 50.874404 0 0 1 78.550079-63.491256 488.394277 488.394277 0 0 1-376.877583 796.082671z" fill="#ffffff" p-id="2670"></path><path d="M512 584.852146a50.874404 50.874404 0 0 1-50.874404-50.060413V50.874404a50.874404 50.874404 0 0 1 101.748808 0v483.917329a50.874404 50.874404 0 0 1-50.874404 50.060413z" fill="#ffffff" p-id="2671"></path></svg>