<svg t="1594704506768" class="icon" viewBox="0 0 1024 1024" version="1.1" xmlns="http://www.w3.org/2000/svg" p-id="6405" width="200" height="200"><path d="M512 0a512 512 0 1 0 512 512 512 512 0 0 0-512-512z m0 979.2A467.2 467.2 0 1 1 979.2 512 467.2 467.2 0 0 1 512 979.2z" fill="#ffffff" p-id="6406"></path><path d="M510.016 591.808a628.416 628.416 0 0 1-89.6-89.6c-19.904-24.576-37.504-50.432-19.2-68.608L273.664 306.432c-18.624 23.168-59.776 133.504 116.8 314.112 185.984 190.336 305.984 149.632 326.4 128L592.768 624.704c-17.408 17.472-39.808 2.048-82.752-32.896z m252.032 85.056l-97.152-96.96a19.584 19.584 0 0 0-27.584 0l-35.136 35.2 124.608 124.8s35.2-35.072 35.136-35.136a19.2 19.2 0 0 0 0.128-27.904zM446.016 389.184a19.2 19.2 0 0 0 0-27.648L346.048 261.824a19.2 19.2 0 0 0-27.584 0l-35.136 35.2 127.424 127.232z" fill="#ffffff" p-id="6407"></path></svg>