<svg t="1594706243695" class="icon" viewBox="0 0 1024 1024" version="1.1" xmlns="http://www.w3.org/2000/svg" p-id="10307" width="200" height="200"><path d="M736.46 997.17c-61.69 0-141.78-41.43-198-76.42C463 874.7 382 810.27 309.24 740.3l-23-23c-70-72.73-134.43-153.78-180.47-229.27-35-56.16-76.41-136.27-76.41-198 0-66.3 47.88-137.19 68.13-164.82C113.13 104.06 169.29 35 216.25 35c19.33 0 40.51 12.9 68.14 41.43 23.93 24.87 46.94 56.18 62.6 78.27 20.25 29.47 39.6 59.84 53.4 86.55 23 42.35 24.87 60.78 24.87 70.89 0 20.25-10.14 38.67-31.31 52.48-13.81 10.14-30.39 16.57-46 23.95-11 4.6-28.53 12-35 17.5 2.76 9.2 12 33.15 39.6 72.73A842 842 0 0 0 440 586.52c30.36 29.48 70 61.7 107.69 87.48 39.62 26.68 63.53 36.83 72.77 39.59 5.52-6.45 12.88-24 17.48-35 6.44-15.67 13.8-32.23 23.95-46.06 13.8-21.16 31.31-32.23 52.47-32.23 10.15 0 27.63 2.79 70.89 25.79 26.71 13.83 57.1 33.14 86.57 53.42 22.08 14.71 53.38 38.66 78.25 62.61 28.55 27.6 41.43 48.78 41.43 68.13 0 46.95-70 103.13-91.13 118.76-26.71 20.27-97.61 68.13-163.91 68.13zM348.83 699.76C418.8 767 496.15 828.67 568 872.86c70 42.38 130.75 67.22 168.5 67.22 33.15 0 81-20.24 127.08-54.3a299.23 299.23 0 0 0 52.47-47c12.91-14.72 16.59-23.92 18.43-27.6-5.52-10.15-34.07-42.38-100.36-88.4a660.12 660.12 0 0 0-76.41-46.94c-28.55-14.75-40.54-17.51-43.3-18.44-0.92 0.92-3.68 3.69-9.2 12a275.18 275.18 0 0 0-14.72 32.23c-6.47 13.83-12.91 28.54-20.27 40.53-12.87 18.4-28.55 28.52-46 28.52h-0.92c-9.23 0-35.91-0.92-107.72-49.7-39.6-27.63-82.89-62.62-115.11-93.93l-0.92-0.92c-31.31-32.23-67.22-75.5-93.91-115.08-48.8-72.73-49.72-98.53-49.72-107.74-0.92-18.41 9.2-34 28.55-46.94 12-7.37 26.69-13.81 40.51-20.25 12-4.62 23.93-10.13 32.23-15.65 8.28-4.61 11-7.38 12-8.29-0.92-2.76-3.68-14.73-18.41-44.18a742.93 742.93 0 0 0-46.95-75.51c-46-67.22-78.27-95.75-88.39-100.36-3.7 0.92-12.9 5.53-27.63 18.41-15.65 12.89-32.23 31.31-47 51.56-34.07 47-54.32 93.92-54.32 128 0 36.83 24.87 98.52 67.22 168.5 44.2 71.8 105.88 149.16 173.1 218.22l22.1 23z" fill="#ffffff" p-id="10308"></path><path d="M687.68 495.37c-10.15 0-19.35-6.45-21.19-16.57-4.6-29.47-21.19-54.32-46.94-70.89-25.79-17.49-57.1-23-88.41-17.49a20.79 20.79 0 0 1-23.93-17.5c-1.85-11.06 5.52-22.11 16.58-23.95 42.34-7.36 84.69 0.92 118.76 23.95a148.62 148.62 0 0 1 65.38 98.51c1.84 11.06-5.52 22.11-16.56 23.95zM812.88 442a21.67 21.67 0 0 1-21.16-17.5c-9.23-56.18-42.38-104-91.16-137.19-48.82-32.23-109.56-44.2-169.42-34.07-11 2.76-22.09-5.53-23.93-16.57s5.52-22.11 16.58-23.95c70.9-12.88 141.79 1.84 199.8 40.52 58.91 38.66 97.58 96.67 109.57 163.88A21.77 21.77 0 0 1 816.55 442z" fill="#ffffff" p-id="10309"></path><path d="M979.53 426.32c-9.2 0-18.43-7.38-20.27-17.5-16.55-95.76-71.82-178.63-155.59-233-83.8-55.24-186-76.42-287.26-58-12 1.84-22.11-5.52-24.87-17.49-1.83-11.01 6.46-22.05 17.46-23.9 112.38-19.34 224.7 2.77 317.7 64.45s154.67 153.76 174 261.49a20.8 20.8 0 0 1-17.5 23.95z" fill="#ffffff" p-id="10310"></path></svg>