<svg t="1595231381082" class="icon" viewBox="0 0 1024 1024" version="1.1" xmlns="http://www.w3.org/2000/svg" p-id="2239" width="200" height="200"><path d="M395.97 328.77h-71.68v-71.68h-71.68v71.68h-71.68v71.68h71.68v71.68h71.68v-71.68h71.68v-71.68z m447.1 387.52L726.14 599.36c17.92-25.98 28.22-57.34 28.22-91.39 0-89.15-72.58-161.28-161.73-161.73-89.15 0-161.28 72.13-161.28 161.28s72.58 161.28 161.73 161.73c29.12 0 56.45-8.06 80.19-21.5l119.17 119.17 50.63-50.63zM593.09 597.57c-49.28 0-89.6-40.32-89.6-89.6 0-23.74 9.41-46.59 25.98-63.17 17.02-17.02 39.42-26.43 63.17-26.43 49.73 0 90.05 40.32 90.05 90.05 0 23.74-9.41 46.59-25.98 63.17-17.03 17.02-39.43 25.98-63.62 25.98z" fill="#ffffff" p-id="2240"></path><path d="M657.6 740.03c-61.82 55.1-115.14 87.81-145.6 104.38-47.49-25.53-150.98-91.39-256.26-220.41-120.06-148.29-120.06-214.14-120.06-249.54 0-112 90.05-202.94 201.15-202.94 52.86 0 96.32 13.89 129.02 41.66L512 252.61l46.14-39.42c32.7-27.78 76.16-41.66 129.02-41.66 110.66 0 201.15 90.94 201.15 202.94 0 40.77-8.06 90.5-65.86 176.51 18.82 13.44 39.42 28.22 58.24 41.66C949.25 491.39 960 428.22 960 374.46c0-151.42-122.3-274.62-272.83-274.62-66.75 0-128.13 18.82-175.17 58.69-47.49-39.87-108.42-58.69-175.17-58.69C186.3 99.84 64 223.04 64 374.46c0 66.3 16.13 146.5 136.19 294.34C357.44 862.34 512 924.16 512 924.16s86.46-34.5 195.78-132.61l-50.18-51.52z" fill="#ffffff" p-id="2241"></path></svg>