<svg t="1593585607618" class="icon" viewBox="0 0 1024 1024" version="1.1" xmlns="http://www.w3.org/2000/svg" p-id="4096" width="200" height="200"><path d="M94.2 890c-0.1 59.5 193.9 107.8 433.2 107.8S960.8 949.5 960.9 890v-0.1c0-59.5-194-107.7-433.3-107.7S94.2 830.4 94.2 890z" fill="#DEEFEE" p-id="4097"></path><path d="M845 860h-6.1v-3.4c4.4 0.3 8.8 0 13.6 0v3.4c-2.4-0.3-4.8 0-7.5 0z m-12.9-0.6c-4.8-0.3-9.2-1.4-13.6-2.4l0.7-3.4c4.1 1 8.5 1.7 13.3 2.4l-0.4 3.4z m27.5 0l-0.3-3.4c4.4-0.3 8.8-1 13.3-1.7l0.7 3.4c-4.9 0.6-9.3 1.3-13.7 1.7z m20.4-3.1l-0.7-3.4c4.4-0.7 8.8-1.7 13.3-2.7l0.7 3.4c-4.5 1-9.2 2-13.3 2.7z m-68.3-1.3c-4.4-1.4-8.8-3.4-12.6-5.8l1.7-3.1c3.7 2 7.8 4.1 12.2 5.4l-1.3 3.5z m88-3.1l-1-3.4c4.1-1 8.5-2.4 12.9-3.7l1 3.4c-4 1.3-8.5 2.3-12.9 3.7z m19.7-5.8l-1-3.1c4.1-1.4 8.5-3.1 12.9-4.4l1 3.1c-4 1.4-8.5 2.7-12.9 4.4z m-126.4-0.3c-3.7-2.7-7.1-5.8-10.2-9.5l2.7-2.4c2.7 3.4 6.1 6.5 9.9 8.8l-2.4 3.1z m145.8-6.8l-1.4-3.1c4.8-1.7 8.8-3.4 12.6-5.1l1.4 3.1c-3.8 1.7-7.8 3.4-12.6 5.1z m19-7.8l-1.4-3.1c7.5-3.4 12.2-5.8 12.2-5.8l1.7 3.1c-0.2 0-5 2.4-12.5 5.8z m-179.1-0.4c-2.4-3.7-4.8-7.8-6.8-12.2l3.1-1.4c1.7 4.1 4.1 8.2 6.5 11.6l-2.8 2z m-9.2-18.7c-1.4-4.1-2.4-8.8-3.4-13.3l3.4-0.7c0.7 4.4 2 8.8 3.4 12.9l-3.4 1.1zM216.9 808v-3.4c4.4 0 8.8 0 13.6-0.3v3.4c-4.4 0.3-9.2 0.3-13.6 0.3z m-6.8 0c-4.8 0-9.2-0.3-13.6-0.3l0.3-3.4c4.4 0.3 8.8 0.3 13.6 0.3l-0.3 3.4z m27.2-0.3l-0.3-3.4c4.4-0.3 8.8-0.7 13.6-1l0.3 3.4c-4.4 0.3-8.9 0.7-13.6 1z m-47.6-0.3c-4.8-0.3-9.2-0.7-13.6-1.4l0.3-3.4c4.4 0.7 8.8 1 13.6 1.4l-0.3 3.4z m68-1.4l-0.3-3.4c4.4-0.3 8.8-1 13.6-1.7l0.3 3.4c-4.5 0.7-8.9 1-13.6 1.7z m-88.4-1c-4.8-0.7-9.2-1.4-13.6-2.4l0.7-3.4c4.4 1 8.8 1.7 13.3 2.4l-0.4 3.4z m108.8-1.4l-0.3-3.4 13.3-2 0.7 3.4c-4.6 0.7-9.3 1.3-13.7 2z m-129.2-2.7c-4.4-1-8.8-2.4-13.3-3.7l1-3.4c4.1 1.4 8.5 2.4 12.9 3.7l-0.6 3.4z m149.2-0.7l-0.7-3.4c4.4-0.7 8.8-1.7 13.3-2.4l0.7 3.4c-4.1 0.7-8.5 1.7-13.3 2.4z m20.4-3.7l-0.7-3.4 13.3-3.1 0.7 3.4-13.3 3.1z m-189.3-1.4c-4.4-1.7-8.5-3.1-12.9-5.1l1.4-3.1c4.1 1.7 8.2 3.4 12.6 5.1l-1.1 3.1z m209-3l-0.7-3.4c4.4-1 8.8-2 13.3-3.4l0.7 3.4c-4.4 1-8.9 2.4-13.3 3.4z m426.9-0.4c-0.3-2.4-0.7-5.1-0.7-7.8 0-2-0.3-4.1-0.3-6.1h3.4c0 2 0 3.7 0.3 5.8 0.3 2.7 0.3 5.1 0.7 7.5l-3.4 0.6z m-654.6-4.4c-4.1-2-8.2-4.1-11.9-6.5l1.7-3.1c3.7 2.4 7.8 4.4 11.9 6.5l-1.7 3.1z m247.8-0.3l-1-3.4c4.4-1 8.8-2.4 13.3-3.7l1 3.4c-4.5 1.3-8.9 2.7-13.3 3.7z m19.7-5.5l-1-3.4c4.4-1.4 8.8-2.7 12.9-3.7l1 3.4c-4.4 1-8.5 2.4-12.9 3.7z m-285.5-4.4c-3.7-2.4-7.5-5.4-11.2-8.2l2-2.7c3.4 2.7 7.1 5.4 10.9 7.8l-1.7 3.1z m304.9-1.3l-1-3.4c4.4-1.4 8.8-2.7 12.9-4.1l1 3.4c-4.1 1.3-8.5 2.7-12.9 4.1z m370.1-4.5h-3.4c0.3-4.8 0.7-9.5 1.4-13.6l3.4 0.7c-0.7 3.8-1.1 8.2-1.4 12.9z m-350.4-2l-1-3.1c4.4-1.4 8.5-3.1 12.9-4.4l1 3.1c-4.4 1.7-8.8 3-12.9 4.4z m-340.9-4.8c-3.4-3.1-6.8-6.5-9.9-9.5l2.4-2.4c3.1 3.4 6.1 6.5 9.5 9.5l-2 2.4z m359.9-1.7l-1-3.1c4.4-1.7 8.5-3.1 12.9-4.8l1 3.1c-4.1 1.8-8.5 3.1-12.9 4.8z m19.4-7.1l-1-3.1c4.4-1.7 8.5-3.1 12.6-4.8l1.4 3.1c-4.5 1.4-8.6 3.1-13 4.8z m315.1-3.7l-3.4-1c1.4-4.4 3.1-8.8 5.1-12.6l3.1 1.7c-1.8 3.4-3.5 7.4-4.8 11.9z m-708.7-2.4c-3.1-3.4-5.8-7.1-8.2-10.9l2.7-2c2.4 3.7 5.1 7.1 8.2 10.5l-2.7 2.4z m412.6-1.4l-1.4-3.1c4.4-1.7 8.5-3.4 12.6-5.1l1.4 3.1c-4.1 1.7-8.2 3.4-12.6 5.1z m19-7.5l-1.4-3.1c4.4-1.7 8.5-3.4 12.6-5.1l1.4 3.1c-4.1 1.7-8.1 3.4-12.6 5.1z m285.6-6.4l-2.7-2c2.7-3.7 5.8-7.1 9.2-10.2l2.4 2.4c-3.8 3-6.6 6.1-8.9 9.8zM50 732.9c-2.4-3.7-4.8-7.8-6.8-11.9l3.1-1.7c2 4.1 4.4 7.8 6.5 11.6l-2.8 2z m462.2 0l-1.4-3.1c4.4-1.7 8.5-3.7 12.6-5.4l1.4 3.1c-4.1 1.7-8.1 3.4-12.6 5.4z m18.7-8.5l-1.4-3.1c4.4-2 8.5-3.7 12.2-5.8l1.4 3.1c-3.3 2.1-7.7 4.1-12.2 5.8z m261.7-4.4l-2-2.7c3.4-2.7 7.1-5.1 11.6-7.5l1.7 3.1c-4.1 2.4-7.9 4.7-11.3 7.1z m-243-4.1l-1.4-3.1c4.8-2 8.8-4.1 12.2-5.8l1.4 3.1c-3.3 1.8-7.4 3.8-12.2 5.8z m-509.5-1.3c-1.7-4.1-3.7-8.2-5.1-12.6l3.1-1c1.7 4.4 3.4 8.5 5.1 12.6l-3.1 1z m769.5-5.1l-1.7-3.1c3.7-2 7.5-3.7 12.2-6.1l1.4 3.1c-4.4 2.3-8.1 4-11.9 6.1z m-241.3-2.4L567 704c5.1-2.7 8.2-4.1 8.8-4.4l2.4 0.3-0.7 2.4c-1 0.7-4.1 2.4-9.2 4.8z m259.7-6.5l-1.4-3.1c4.1-1.7 8.2-3.4 12.6-5.4l1.4 3.1c-4.4 2-8.5 3.7-12.6 5.4z m-795.3-5.1l-0.3-0.7c-1.4-4.1-2.7-8.2-3.7-12.2l3.4-1c1.4 4.1 2.4 8.2 3.7 12.2l0.3 0.7-3.4 1z m814-2.7l-1.4-3.1c4.1-1.7 8.2-3.4 12.6-5.4l1.4 3.1c-4.1 2-8.5 3.7-12.6 5.4z m18.7-8.1l-1.4-3.1c4.4-2 8.5-4.1 12.2-5.8l1.7 3.1c-4 1.7-8.1 3.7-12.5 5.8z m-838.9-8.5c-1.4-4.4-2.7-8.8-3.7-12.9l3.4-1c1.4 4.4 2.4 8.5 3.7 12.9l-3.4 1z m857.2-0.7l-1.7-3.1c4.1-2 8.2-4.4 11.9-6.8l1.7 3.1c-3.7 2.4-7.4 4.8-11.9 6.8z m18.1-10.2l-1.7-2.7c3.7-2.4 7.5-5.1 11.2-7.5l2 2.7c-4.1 2.4-7.8 4.8-11.5 7.5z m-881-8.8c-1.4-4.4-2.4-8.8-3.4-13.3l3.4-0.7c1 4.4 2.4 8.8 3.4 13.3l-3.4 0.7z m897.6-3.1l-2-2.7c3.4-2.7 7.1-5.8 10.2-8.5l2.4 2.4c-3.5 3-7.2 6.1-10.6 8.8z m15.6-13.3l-2.4-2.7c3.4-3.1 6.5-6.5 9.5-9.5l2.4 2.4c-3 3.4-6.4 6.4-9.5 9.8z m-918-3.4l-3.1-13.3 3.4-0.7 3.1 13.3-3.4 0.7z m932-11.5l-2.7-2.4c3.1-3.4 5.8-6.8 8.5-10.5l2.7 2c-2.4 4.1-5.5 7.5-8.5 10.9z m-936.8-8.5c-1-4.4-1.7-9.2-2.7-13.3l3.4-0.7c0.7 4.4 1.7 8.8 2.4 13.3l-3.1 0.7z m949.7-7.5l-2.7-2c2.7-3.7 5.1-7.5 7.5-11.2l2.7 1.7c-2.4 4-5.1 7.8-7.5 11.5z m-953-12.6c-0.7-4.8-1.4-9.2-2-13.6l3.4-0.3 2 13.3-3.4 0.6z m964.2-4.7l-3.1-1.7c2.4-3.7 4.4-7.8 6.5-11.9l3.1 1.7c-2.1 4.1-4.5 8.1-6.5 11.9zM4.8 576.2c-0.7-4.4-1-9.2-1.4-13.6l3.4-0.3c0.3 4.4 0.7 8.8 1.4 13.6l-3.4 0.3z m976.8-2.3l-3.1-1.4c2-4.1 3.7-8.2 5.8-12.2l3.1 1.4c-1.7 4-3.7 8.1-5.8 12.2zM3.1 555.8c-0.3-4.8-0.7-9.2-0.7-13.6h3.4c0 4.4 0.3 8.8 0.7 13.6H3.1z m987-0.6l-3.1-1.4c1.7-4.1 3.4-8.5 4.8-12.6l3.1 1c-1.4 4.5-3.1 8.9-4.8 13z m7.2-19.1l-3.1-1c1.4-4.1 2.7-8.5 4.1-12.9l3.4 1c-1.7 4.4-3.1 8.5-4.4 12.9z m-995.2-0.6v-1.7c0-4.1 0-8.2 0.3-11.9h3.4c0 3.7-0.3 7.8-0.3 11.6v1.7l-3.4 0.3z m1001.3-19.1l-3.4-1c1.4-4.1 2.4-8.5 3.4-12.9l3.4 0.7c-1 4.7-2.1 9.1-3.4 13.2zM6.2 515.1l-3.4-0.3c0.3-4.8 0.7-9.2 1.4-13.6l3.4 0.3c-0.8 4.7-1.1 9.1-1.4 13.6z m1002.3-18.4l-3.4-0.7 3.1-13.3 3.4 0.7c-1.1 4.5-2.1 9.2-3.1 13.3zM8.2 495l-3.4-0.3c0.7-4.4 1.4-9.2 2.4-13.6l3.4 0.7c-0.7 4.4-1.7 8.8-2.4 13.2z m274.6-17c-3.4 0-7.1-0.3-10.5-0.7l0.3-3.4c4.4 0.7 8.8 0.7 13.3 0.7v3.4h-3.1z m10.2-0.7l-0.3-3.4c4.4-0.7 8.8-1.7 12.9-3.1l1 3.1c-4.4 1.7-8.8 2.8-13.6 3.4z m719.9-0.6l-3.4-0.7c1-4.4 1.7-8.8 2.4-13.3l3.4 0.7c-0.7 4.4-1.7 9.2-2.4 13.3z m-747.4-0.7c-4.4-1-8.8-2.7-13.3-4.4l1.4-3.1c4.1 1.7 8.2 3.4 12.6 4.4l-0.7 3.1z m-253.2-0.7l-3.4-0.7c1-4.4 2.4-8.8 3.7-13.3l3.4 1c-1.4 4.2-2.7 8.6-3.7 13z m300.8-3.7l-1.4-3.1c4.1-1.7 7.8-4.1 11.6-6.8l2 2.7c-4.1 2.7-7.8 5.1-12.2 7.2z m-67-3.4c-1.7-1-3.7-2-5.4-3.4-2-1.4-4.1-3.1-5.8-4.8l2.4-2.4c1.7 1.7 3.4 3.1 5.4 4.4 1.7 1 3.4 2.4 5.1 3.4l-1.7 2.8z m84.3-8.2l-2.4-2.4c3.4-3.1 6.1-6.5 8.5-10.2l2.7 1.7c-2.3 4.1-5.4 7.5-8.8 10.9z m685.9-3.4l-3.4-0.7 2-13.3 3.4 0.3c-0.6 4.9-1.3 9.3-2 13.7zM18 455.9l-3.1-1c1.7-4.4 3.4-8.5 5.1-12.6l3.1 1.4c-1.7 3.7-3.4 8.1-5.1 12.2z m211.8-1c-2.7-3.4-5.4-7.5-7.5-11.9l3.1-1.4c2 4.1 4.4 7.8 7.1 11.2l-2.7 2.1zM342.6 443l-3.1-1.4c1.7-4.1 3.1-8.2 3.4-12.6l3.4 0.3c-0.6 4.9-2 9.3-3.7 13.7z m-316.4-5.4l-3.1-1.7c2-4.1 4.4-8.2 6.8-11.9l2.7 1.7c-2 3.7-4.4 7.8-6.4 11.9z m193.4-0.7c-1.7-4.1-3.1-8.5-4.1-13.3l3.4-0.7c1 4.4 2.4 8.8 4.1 12.6l-3.4 1.4z m799.8-0.4l-3.4-0.3c0.7-4.4 1-9.2 1.4-13.6l3.4 0.3c-0.4 4.5-0.8 8.9-1.4 13.6z m-676.1-13.9c0-4.1-0.7-8.5-2-12.9l3.4-1c1.4 4.8 2 9.2 2 13.9h-3.4z m-306.9-2.4l-2.7-2c2.7-3.7 5.4-7.5 8.2-10.9l2.7 2c-2.8 3.5-5.5 7.2-8.2 10.9z m177.8-3.4c-0.7-4.4-1.4-8.8-2-13.6l3.4-0.3c0.3 4.8 1 9.2 2 13.3l-3.4 0.6z m807.2-0.6l-3.4-0.3c0.3-4.4 0.7-9.2 0.7-13.6h3.4c-0.4 4.7-0.4 9.1-0.7 13.9zM49 404.3l-2.7-2.4c3.1-3.4 6.1-6.8 9.5-9.9l2.4 2.4c-3.4 3.4-6.5 6.5-9.2 9.9z m290.2-1.1c-1.7-4.1-3.4-7.8-6.1-11.9l3.1-1.7c2.4 4.1 4.8 8.2 6.1 12.2 0 0.1-3.1 1.4-3.1 1.4z m-127.4-6.8c-0.3-4.4-0.3-8.8-0.3-13.6h3.4c0 4.8 0 9.2 0.3 13.6h-3.4z m810.3-1h-3.4v-13.6h3.4v13.6z m-959.2-5.8l-2.4-2.4c3.1-3.1 6.5-5.8 10.2-9.2l2 2.7c-3.3 3.2-6.4 6.2-9.8 8.9z m266.5-3.7l-0.7-1c-2.4-3.1-4.8-6.1-7.8-9.2l2.4-2.4c3.1 3.1 5.8 6.1 8.2 9.5l1 1-3.1 2.1z m-250.9-9.5l-2-2.7 5.1-4.1c2-1.4 3.7-3.1 5.4-4.4l2 2.7c-1.7 1.4-3.7 3.1-5.4 4.4l-5.1 4.1z m136-0.4h-3.4c0-4.4 0.3-9.2 0.7-13.6l3.4 0.3c-0.4 4.2-0.4 8.9-0.7 13.3z m803.8-0.6c-0.3-4.4-0.7-9.2-1-13.6l3.4-0.3c0.3 4.4 0.7 9.2 1 13.6l-3.4 0.3zM316.1 371c-3.4-2.7-6.8-5.8-10.5-8.2l2-2.7c3.7 2.7 7.5 5.4 10.9 8.5l-2.4 2.4z m-221.9-7.5l-2-2.4c0.7-0.7 1.4-1 2-1.7 2.7-2.4 5.8-4.4 9.2-6.8l1.7 3.1c-3.4 2-6.1 4.1-8.5 6.1-1.1 0.7-1.7 1-2.4 1.7z m205.6-4.4c-3.7-2.4-7.8-4.4-11.9-6.1l1.4-3.1c4.4 2 8.5 4.1 12.2 6.5 0-0.1-1.7 2.7-1.7 2.7z m-83.9-3.4l-3.4-0.3c0.3-4.4 1-8.8 1.4-13.6l3.4 0.3c-0.8 4.7-1.1 9.1-1.4 13.6z m800.7-0.7l-2-13.3 3.4-0.7c0.7 4.4 1.7 8.8 2 13.6l-3.4 0.4z m-906.1-2.7l-1.4-3.1c3.7-2 8.2-3.7 12.6-5.4l1 3.1c-4 2-8.5 3.7-12.2 5.4z m171.3-2.1c-4.1-1.7-8.2-3.1-12.6-4.8l1-3.4c4.4 1.4 8.8 3.1 12.9 4.8l-1.3 3.4z m-152.3-5.1l-1-3.4c4.1-1.4 8.5-2.4 13.3-3.4l0.7 3.4c-4.5 0.7-8.9 2.1-13 3.4z m133.3-1.3c-4.1-1-8.5-2.4-13.3-3.1l0.7-3.4c4.4 1 8.8 2 13.3 3.4l-0.7 3.1zM148.9 340l-0.7-3.4c4.4-1 8.8-1.7 13.6-2.4l0.3 3.4c-4.4 1.1-8.8 1.7-13.2 2.4z m94.2-0.7l-13.3-2 0.3-3.4c4.4 0.7 9.2 1.4 13.6 2l-0.6 3.4zM169 337l-0.3-3.4c4.4-0.3 9.2-1 13.6-1l0.3 3.4c-4.8 0.3-9.2 0.6-13.6 1z m54-0.4c-4.4-0.3-8.8-0.7-13.6-1v-3.4c1.7 0 3.7 0 5.4 0.3 0.7-3.7 1-7.5 1.7-11.2l3.4 0.7c-0.7 3.4-1 7.1-1.7 10.9 1.7 0 3.1 0.3 4.8 0.3v3.4z m-33.6-1v-3.4c4.4 0 9.2-0.3 13.6 0v3.4c-4.8-0.3-9.2 0-13.6 0z m823.5-0.3c-1-4.4-2-8.8-3.4-12.9l3.4-1c1.4 4.4 2.4 8.8 3.4 13.3l-3.4 0.6z m-5.4-19.4c-1.4-4.4-3.1-8.5-4.8-12.6l3.1-1.4c1.7 4.1 3.4 8.5 4.8 12.9l-3.1 1.1z m-786.2-0.3l-3.4-0.7c1-4.8 1.7-9.5 2.7-13.3l3.4 0.7c-0.7 3.7-1.7 8.2-2.7 13.3z m778.7-18.4c-2-4.1-4.1-8.2-6.5-11.9l3.1-1.7c2.4 3.7 4.4 7.8 6.5 12.2l-3.1 1.4z m-774.6-1.7l-3.4-0.7c1.7-7.5 3.1-11.9 3.1-11.9l0.3-1.4 3.4 0.7-0.3 1.4c-0.1 0.3-1.4 4.4-3.1 11.9z m345.3-6.8h-4.4v-3.4c4.4 0.3 8.8 0 13.3-0.3l0.3 3.4c-3.1 0.3-6.1 0.3-9.2 0.3z m-11.2-0.7c-4.8-0.7-9.2-1.7-13.6-3.1l1-3.4c4.1 1.4 8.5 2.4 12.9 2.7l-0.3 3.8z m27.5-0.7l-0.3-3.4c4.4-0.7 8.8-1.7 13.3-2.7l1 3.4c-5.1 1.4-9.6 2.1-14 2.7z m20.1-4.4l-1-3.4c4.1-1.4 8.5-2.7 12.6-4.4l1.4 3.1c-4.5 1.7-9 3.4-13 4.7z m-67.7-0.3c-4.4-2-8.5-4.4-11.9-7.1l2-2.7c3.4 2.7 7.1 4.8 11.2 6.8 0.1-0.1-1.3 3-1.3 3z m450.7-3.1c-2.4-3.7-5.1-7.5-7.8-10.9l2.7-2c2.7 3.7 5.4 7.5 7.8 11.2l-2.7 1.7z m-759.6-3.7l-3.4-0.7c1-4.4 2.4-8.8 3.4-13.3l3.4 1c-1 4.1-2.4 8.2-3.4 13z m395.9-0.4l-1.4-3.1c4.1-1.7 8.2-3.7 12.2-5.8l1.7 3.1c-4.3 2.1-8.4 4.1-12.5 5.8zM521.8 271c-3.4-3.1-6.5-6.8-8.8-10.9l2.7-1.7c2.4 3.7 5.4 7.1 8.5 10.2l-2.4 2.4z m123-4.7l-1.7-3.1c3.7-2.4 7.8-4.8 11.6-7.1l2 2.7c-4.1 2.7-8.2 5.1-11.9 7.5z m333.4-2.8c-3.1-3.4-6.1-6.8-9.2-9.9l2.4-2.4c3.4 3.1 6.5 6.5 9.5 9.9l-2.7 2.4z m-742.3-7.4l-3.4-1c1.4-4.4 2.7-8.8 4.1-12.9l3.4 1c-1.4 4-2.7 8.5-4.1 12.9z m425.9-1l-2-2.7c3.7-2.7 7.1-5.4 10.9-8.2l2 2.7c-3.4 2.7-7.2 5.4-10.9 8.2z m-152.3-0.7c-2-4.1-3.7-8.2-5.4-12.9l3.4-1c1.4 4.4 3.1 8.5 5.1 12.2l-3.1 1.7z m454.5-5.5c-3.4-3.1-6.8-5.8-10.5-8.5l2-2.7c3.7 2.7 7.1 5.8 10.5 8.8l-2 2.4z m-285.9-6.8l-2.4-2.7c3.4-3.1 6.8-6.1 9.9-9.2l2.4 2.4c-3.1 3.4-6.5 6.5-9.9 9.5zM242 236.7l-3.1-1c1.7-4.4 3.1-8.8 4.8-12.9l3.1 1.4c-1.7 4-3.1 8.1-4.8 12.5z m706 0c-3.7-2.4-7.5-4.8-11.6-7.1l1.7-3.1c4.1 2.4 7.8 4.8 11.6 7.1l-1.7 3.1zM502.4 235c-1-4.4-2-8.8-2.4-13.6l3.4-0.3c0.7 4.8 1.4 9.2 2.4 13.3l-3.4 0.6z m190.3-7.1l-2.4-2.4c3.1-3.4 6.1-6.8 8.8-10.2l2.7 2c-3 3.8-6 7.2-9.1 10.6z m238.3-1.7c-3.7-2-8.2-4.1-12.2-5.8l1.4-3.1c4.1 1.7 8.5 3.7 12.2 6.1l-1.4 2.8z m-18.4-8.5c-4.1-1.7-8.5-3.1-12.6-4.8l1-3.1c4.4 1.4 8.8 3.1 12.9 4.8l-1.3 3.1z m-663.4 0l-3.1-1.4c1.7-4.4 3.4-8.5 5.4-12.6l3.1 1.4c-2 4.1-3.7 8.5-5.4 12.6z m250.1-3.1c-0.3-4.4-1-9.2-1.4-13.6l3.4-0.3c0.7 4.4 1 8.8 1.4 13.6l-3.4 0.3z m206.7-2.4l-2.7-2c0.7-1 1.4-1.7 2-2.7-1.4-0.3-3.7-1.4-7.1-2.7l1.4-3.1c3.7 1.7 6.5 2.4 7.8 3.1 1.4-1.7 2.4-3.7 3.7-5.4l2.7 1.7c-0.7 1-1.4 2.4-2 3.4l0.7 3.1c-1.4 0.3-2.4 0.3-3.1 0.7-1.4 0.9-2.4 2.6-3.4 3.9z m187.3-1c-4.1-1.4-8.5-2.4-12.9-3.4l0.7-3.4c4.4 1 8.8 2.4 13.3 3.7l-1.1 3.1z m-19.8-5.1c-4.4-1-8.8-1.7-13.3-2.4l0.7-3.4c4.4 0.7 9.2 1.7 13.6 2.7l-1 3.1z m-154.6 0l-0.7-3.4c3.7-0.7 8.2-1.4 13.6-2l0.3 3.4c-5 0.3-9.5 1.3-13.2 2z m20-3.4l-0.3-3.4c4.1-0.7 8.8-1 13.6-1.7l0.3 3.4c-5.1 0.7-9.5 1.4-13.6 1.7z m114.9-0.3c-4.4-0.7-8.8-1.4-13.6-1.7l0.3-3.4c4.4 0.3 9.2 1 13.6 1.7l-0.3 3.4z m-162.1 0c-4.1-1.7-8.5-3.7-12.6-5.4l1.4-3.1c4.1 2 8.2 3.7 12.2 5.4l-1 3.1z m67.3-1.7l-0.3-3.4c4.4-0.3 8.8-0.7 13.6-1l0.3 3.4c-4.8 0.3-9.2 0.6-13.6 1z m74.4-0.4c-4.4-0.3-8.8-0.7-13.6-1v-3.4c4.4 0.3 9.2 0.7 13.6 1v3.4z m-54-1v-3.4c4.4-0.3 8.8-0.3 13.6-0.3v3.4c-4.8 0-9.2 0-13.6 0.3zM257 199l-3.1-1.4c2-4.4 4.1-8.5 6.1-12.2l3.1 1.7c-2 3.7-4.1 7.8-6.1 11.9z m556.4 0c-4.4 0-8.8-0.3-13.3-0.3l-0.3-3.4c4.8 0 9.2 0 13.6 0.3v3.4z m-96.2-4.1l-3.1-1.7c2.4-4.1 4.4-7.8 6.1-11.9l3.1 1.4c-1.7 4-3.7 8.5-6.1 12.2z m-220.6-0.7c-0.7-4.4-1.7-8.8-2.4-13.3l3.4-0.7c1 4.4 1.7 8.8 2.4 13.6l-3.4 0.4z m176.4-0.3c-4.1-2-8.2-4.1-12.2-6.5l1.7-3.1c3.7 2 7.8 4.1 11.9 6.1l-1.4 3.5z m-18-9.9c-4.1-2.4-8.2-4.8-11.6-7.1l1.7-2.7c3.7 2.4 7.5 4.8 11.6 7.1L655 184z m-388.5-3l-3.1-1.7c2.4-4.4 4.8-8.2 7.1-11.6l2.7 2c-1.9 3.4-4.3 7.2-6.7 11.3z m459.9-4.5l-3.1-1.4c1.7-4.1 3.1-8.5 4.4-12.6l3.4 1c-1.7 4.2-3 8.6-4.7 13z m-233.5-2c-1-4.4-2.4-8.8-3.7-12.9l3.4-1c1.4 4.1 2.7 8.8 3.7 13.3l-3.4 0.6z m144.8-1.4c-3.7-2.7-7.5-5.4-10.9-8.2l2-2.7c3.4 2.7 6.8 5.4 10.9 8.2l-2 2.7z m-360.3-8.8l-2.7-2 1-1c2.4-3.4 4.8-6.5 7.1-9.9l2.7 2c-2.4 3.1-4.8 6.5-7.1 9.9-0.3 0-0.3 0.3-1 1z m343.9-3.7c-3.7-3.1-6.8-6.5-9.9-9.9l2.4-2.4c2.7 3.1 6.1 6.5 9.5 9.5l-2 2.8z m111.2-3.8l-3.4-0.7c1-4.4 1.7-8.8 2-13.3l3.4 0.3c-0.3 4.5-1 9.3-2 13.7z m-245.7-1.7c-1.7-4.4-3.4-8.5-5.1-12.6l3.1-1.4c1.7 4.1 3.7 8.2 5.1 12.6l-3.1 1.4zM290 148l-2.7-2c3.1-3.7 5.8-7.1 8.8-10.5l2.4 2.4c-2.8 3.3-5.8 6.7-8.5 10.1z m317.4-2.7c-3.1-3.7-5.4-7.8-7.5-11.9l3.1-1.4c1.7 3.7 4.1 7.5 7.1 11.2l-2.7 2.1z m-128.5-8.5c-2-4.1-4.4-7.8-6.8-11.6l2.7-1.7c2.4 3.7 4.8 7.8 6.8 11.9l-2.7 1.4z m256.3-0.4h-3.4v-4.1c0-3.1 0-6.1-0.3-9.2l3.4-0.3c0.3 3.1 0.3 6.5 0.3 9.5v4.1z m-432-3.7l-2.4-2.4c3.1-3.4 6.5-6.8 9.5-9.9l2.4 2.4c-3.4 3.4-6.4 6.5-9.5 9.9z m294-5.4c-1.7-4.4-2.4-9.2-2.7-13.6h3.4c0 4.1 1 8.5 2.4 12.9l-3.1 0.7z m-128.8-7.9c-2.7-3.7-5.4-7.1-8.5-10.2l2.4-2.4c3.1 3.4 6.1 6.8 8.8 10.5l-2.7 2.1z m-150.9-0.6l-2.4-2.4c3.4-3.1 7.1-6.1 10.5-8.8l2 2.7c-3.3 2.3-6.7 5.4-10.1 8.5z m413.3-2.8c-0.7-4.4-1.7-8.8-2.7-13.3l3.4-1c1.4 4.4 2 9.2 2.7 13.6l-3.4 0.7z m-132.6-9.1l-3.4-0.3c0.7-4.4 1.7-9.2 3.7-13.6l3.1 1.4c-1.7 4-3 8-3.4 12.5z m-265.1-1.1l-2-2.7c3.7-2.7 7.5-5.4 11.6-7.5l1.7 3.1c-3.8 2-7.5 4.4-11.3 7.1z m122-1.3c-3.4-3.1-6.8-5.8-10.2-8.5l2-2.7c3.7 2.7 7.5 5.4 10.9 8.8l-2.7 2.4zM726 96.7c-1.4-4.4-3.1-8.5-4.8-12.6l3.1-1.4c1.7 4.1 3.4 8.5 5.1 12.9l-3.4 1.1z m-375.9-1.4l-1.7-3.1c4.1-2.4 8.2-4.1 12.6-5.8l1.4 3.1c-4.1 1.4-8.2 3.4-12.3 5.8z m89.4-3.1c-3.7-2.4-7.8-4.1-11.9-5.8l1-3.1c4.4 1.7 8.5 3.7 12.6 6.1l-1.7 2.8z m164.9-4l-3.1-1.7 1-2c2-3.4 4.1-6.5 6.1-9.5l2.7 2c-2 3.1-4.1 6.1-6.1 9.5 0 0.3-0.3 1-0.6 1.7z m-235.6-1.1l-1-3.1c4.4-1.7 8.8-2.7 13.3-3.7l0.7 3.4c-4.5 0.7-8.9 1.7-13 3.4z m52.4-2.7c-4.1-1.4-8.5-2-12.9-2.4l0.3-3.4c4.8 0.3 9.2 1.4 13.6 2.7l-1 3.1z m-33-2l-0.3-3.4c4.1-0.7 8.2-0.7 12.2-0.7h1.7v3.4h-1.7c-4.4 0-8.2 0-11.9 0.7z m330-4.4c-2-4.1-4.4-7.8-6.8-11.6l2.7-2c2.4 3.7 4.8 7.8 7.1 11.9l-3 1.7z m-102.6-6.5l-2.7-2c2.7-3.7 5.8-7.5 8.8-10.5l2.4 2.4c-2.8 2.6-5.8 6.4-8.5 10.1zM707.7 61c-2.7-3.7-5.8-6.8-8.8-9.9l2.4-2.4c3.4 3.1 6.5 6.5 9.5 10.2l-3.1 2.1z m-78.9-4.8l-2.4-2.4c3.4-3.4 7.1-6.5 10.5-8.8l2 2.7c-3.3 2.4-6.7 5.1-10.1 8.5z m64.6-9.2c-3.7-2.7-7.5-5.1-11.2-6.5l1.4-3.1c4.1 1.7 8.2 4.1 12.2 6.8l-2.4 2.8z m-48.9-3l-1.7-3.1c4.4-2.4 8.5-4.4 12.9-5.4l1 3.4c-4.1 1-8.2 2.7-12.2 5.1z m31.6-5.5c-4.1-1-8.5-1.4-12.9-0.7l-0.3-3.4c4.8-0.3 9.5-0.3 13.9 1l-0.7 3.1zM381 225.8c-13.3 0-23.8-10.5-23.8-23.8s10.5-23.8 23.8-23.8 23.8 10.5 23.8 23.8-10.8 23.8-23.8 23.8z m0-40.8c-9.2 0-17 7.5-17 17 0 9.2 7.5 17 17 17 9.2 0 17-7.5 17-17-0.3-9.5-7.8-17-17-17z" fill="#07CBB8" p-id="4098"></path><path d="M983 844.4c-12.9 0-23.8-10.5-23.8-23.8s10.5-23.8 23.8-23.8 23.8 10.5 23.8 23.8-10.9 23.8-23.8 23.8z m0-40.4c-9.2 0-17 7.5-17 17s7.5 17 17 17 17-7.5 17-17c0-9.6-7.8-17-17-17z m-26.9-109.5h5.1v46.2h-5.1v-46.2z" fill="#07CBB8" p-id="4099"></path><path d="M935.7 714.9H982v5.1h-46.2v-5.1z m-820.4-53.3h5.1v41.1h-5.1v-41.1z" fill="#07CBB8" p-id="4100"></path><path d="M97.2 679.2h41.1v5.1H97.2v-5.1z m164.5-280.7h5.1v41.1h-5.1v-41.1z" fill="#07CBB8" p-id="4101"></path><path d="M243.7 416.5h40.8v5.1h-40.8v-5.1zM837.5 94.3h5.1v41.1h-5.1V94.3z" fill="#07CBB8" p-id="4102"></path><path d="M819.5 112.6h41.1v5.1h-41.1v-5.1z m-31.3 807.6v34l34-18.7-34-15.3zM129.5 207.1v34l32.6-17c0.1 0-32.6-17-32.6-17z" fill="#07CBB8" p-id="4103"></path><path d="M502 465.1V808l331.4 66V499.1L502 460.3" fill="#61C4B5" p-id="4104"></path><path d="M505.1 460.3v345.3l-273.6 80.6V518.5l273.6-58.2z" fill="#9BDBD4" p-id="4105"></path><path d="M547.9 559.6v396.6L833.4 874V501.5l-285.5 58.1z" fill="#58DFC7" p-id="4106"></path><path d="M550.3 956.9L226.1 894V523.9l324.3 38.7" fill="#06CAB7" p-id="4107"></path><path d="M550.3 559.6L642.1 717s0.7 8.5 14.6 2.4l268.5-84.6s6.8-4.1 0-12.2l-91.8-123.4-283.1 60.4z" fill="#C3F0EA" p-id="4108"></path><path d="M552.7 557.2l-323.9-38.7-72.7 138 324.3 58.1 72.3-157.4z" fill="#BEE9E3" p-id="4109"></path><path d="M633.9 507.6s23.8-78.9 52.7-138c0 0-66.6 3.4-36.4-88 0 0 26.9-37.4 72.7 6.5 0 0 33.6-89.4 92.4-19.4 5.1 6.5 15 40.8-9.9 68.7-6.8 0 56.4-4.1 26.5 58.8 0 0-57.8 64.9-78.9 2.4-0.1-0.5-124.2 156.2-119.1 109z" fill="#E5F8F6" p-id="4110"></path><path d="M638 520.5c-1.7 0-3.1-0.3-4.4-1.4-4.4-3.1-3.7-9.9-3.7-11.9v-0.7c0.3-0.7 22.8-74.8 50.3-132.9-8.2-1-22.4-4.4-32.3-17-12.6-16.3-12.9-41.8-1.7-76.1l0.3-0.7 0.3-0.3c0.3-0.7 10.5-14.6 29.6-16.3 14.3-1.4 29.6 4.8 44.9 18.4 5.4-11.9 20.4-38.7 44.5-42.8 17-3.1 34.7 6.5 52.7 27.5 5.1 6.8 15.6 39.1-5.1 67.6 6.5 1 14.6 3.7 20.7 9.2 8.8 7.8 16.3 23.8 1.4 54.7l-0.7 1c-1.4 1.4-32.3 35.7-58.8 30.2-10.2-2-18.4-9.9-24.1-22.4-2 2.4-4.8 5.8-8.5 10.5-7.1 8.8-18.4 22.4-30.6 36.4-31.6 36.4-54 58.1-66.6 64.9-1.7 0.4-4.8 2.1-8.2 2.1z m0-8.2s0.3 0 0 0c12.6 0 73.1-67.3 111.8-116.9l2.4 2 4.4-0.7c4.8 13.9 11.6 22.1 20.7 24.1 18 3.7 42.5-18 50.6-27.2 8.5-18 9.9-31.6 4.1-40.4-7.1-10.5-22.8-11.9-26.2-11.9h-0.7c-3.1 0-4.1-1.7-4.4-3.1l-1-3.1 2.7-1.7s0.3 0 0.7-0.3c22.4-25.8 13.3-56.8 8.8-62.2-15.6-18.7-30.9-27.2-44.9-24.8-25.5 4.4-40.4 42.8-40.4 43.2l-2 5.8-4.4-4.4c-15.3-14.6-29.6-21.4-42.8-20.1-13.3 1.4-21.4 10.5-23.1 12.6-10.2 31.3-9.9 54 0.7 68 11.6 15 31.6 14.3 31.9 14.3l6.8-0.3-3.1 6.1c-27.5 56.1-50.6 130.9-52.3 137-0.6 2.7-0.3 3.7-0.3 4z" fill="#64DED4" p-id="4111"></path><path d="M475.5 512.7s-29.2-61.2-46.9-110.5c0 0-45.9 30.9-70-23.5-0.3-10.5-15-49.6 41.8-43.2 0 0-18.7-57.8 39.8-64.2 7.8 2.7 28.9 15.3 37.4 53.4-5.1 4.8 51.7-59.5 62.2 10.9 0 0-7.1 79.2-60.8 53-0.4 0 20.7 153-3.5 124.1z" fill="#E5F8F6" p-id="4112"></path><path d="M480.6 520.5c-2.7 0-5.4-1.7-8.5-5.1l-0.7-0.7c-0.3-0.7-27.9-58.5-45.5-106-7.5 3.7-22.8 9.9-38.7 5.1-13.9-4.1-25.2-15-33-33l-0.3-0.7v-0.7c0-1-0.3-3.1-0.7-5.1-1.4-8.8-3.7-23.8 6.1-33.6 7.1-7.1 18.7-10.2 35-9.2-2-9.2-4.1-27.9 5.8-42.8 7.5-11.9 20.7-18.7 38.7-20.7h1l1 0.3c4.8 1.7 27.5 11.9 38.1 49.3 8.5-7.8 24.1-19.7 38.1-18.4 13.6 1.4 22.4 13.6 25.8 36.4v0.7c0 1.7-4.4 44.2-28.6 57.8-9.2 5.1-19.7 5.4-31.3 1.4 1.4 11.6 4.1 34 5.8 56.4 5.1 63.2-2 66.3-5.8 68-0.2 0.3-1.2 0.6-2.3 0.6z m-1.7-9.9l1.4 1.4c4.8-8.2 2.4-60.8-6.1-122.7l-0.3-1.7 1.4-1.7 2-2.4 2.7 1.4c11.9 5.8 22.1 6.5 30.6 1.7 19.4-10.9 23.8-46.6 24.5-51-2.7-17-8.2-26.5-16.3-28.6-13.6-3.4-31.9 13.3-37.4 18.7v0.3l-1.7 1.7c-2.4 2.4-4.8 1-5.4 0.7l-2.7-1.7 1-2.7c-8.5-36-28.6-46.6-33.6-48.6-15 1.7-25.8 7.5-31.9 17-11.2 17.3-3.4 41.8-3.4 41.8l2 6.1-6.1-0.7c-17-2-28.2 0.3-34.3 6.5-6.8 7.1-5.1 19-3.7 26.9 0.3 2 0.7 3.7 0.7 5.1 6.8 15 16 24.5 27.5 27.5 18.4 5.1 36.4-6.5 36.4-6.8l4.4-3.1 1.7 4.8c16.7 46.6 43.9 104.4 46.6 110.1z" fill="#64DED4" p-id="4113"></path><path d="M185.3 508.3c-25.8 0-53-13.6-72.7-26.2-2.4-1.4-4.1-3.1-5.8-5.1-35.7-0.3-48.6-26.9-48.6-27.2l3.1-1.4c0.7 1 11.9 23.8 43.2 25.2-1.7-3.1-2.4-6.5-2.4-9.9 0.3-6.1 3.7-11.9 8.8-14.3 4.4-2 9.5-1.7 13.9 1.7 5.1 3.7 7.8 7.5 7.5 11.9 0 6.8-7.5 11.9-7.5 11.9l-0.7 0.3c-4.8 1-9.2 1.4-13.3 1.7 1 0.7 1.7 1.4 3.1 2.4 23.1 14.6 56.4 30.9 84.6 24.1l0.7 3.4c-4.1 0.8-8.8 1.5-13.9 1.5z m-68.7-56.8c-1.4 0-2.7 0.3-4.1 1-4.1 2-6.8 6.5-7.1 11.2 0 2.4 0.3 6.1 2.7 9.9 4.8 0 9.5-0.7 15-1.7 1-0.7 5.8-4.4 5.8-9.2 0-3.1-2-6.1-6.1-9.2-1.8-1.3-4.1-2-6.2-2zM881 477.3c-5.4 0-10.5-1-13.9-3.7l2-2.7c6.8 5.4 24.5 1.7 30.9 0 12.6-3.1 22.4-9.2 29.2-16-4.4-0.7-8.8-1.7-13.3-3.4l-0.7-0.3c-0.3-0.3-5.8-6.5-4.1-13.9 1.4-5.8 6.8-10.2 16-13.9 7.1-2.7 11.2-1 13.6 1 3.1 2.7 4.1 7.8 2.7 13.9-1 4.4-3.4 9.2-6.8 13.6h0.7c40.4 0 75.8-43.5 76.1-44.2l2.7 2c-0.3 0.7-38.7 47.9-82.3 45.2-7.1 8.2-18 15.3-32.6 18.7-0.8 1-10.7 3.7-20.2 3.7z m36.4-28.5c4.8 2 9.9 3.1 14.6 3.4 4.1-4.8 6.5-9.5 7.5-14.3 1-4.8 0.7-8.8-1.7-10.5-2-1.7-5.4-2-9.9-0.3-8.2 3.1-12.6 6.8-13.6 11.2-1 4.7 2.4 9.5 3.1 10.5zM907.2 403.9c-4.4 0-7.5-0.3-7.8-0.3l-2-0.3-0.3-2c-2.4-19.4 1.4-33.6 10.9-42.8 15-14.3 38.4-10.2 39.4-9.9h0.7l0.3 0.3c7.1 4.8 11.6 13.6 11.2 22.1-0.7 8.5-4.1 15.6-10.5 21.1-12 10.1-31 11.8-41.9 11.8z m-5.4-5.4c7.1 0.3 30.9 0.7 43.8-10.2 5.1-4.4 8.2-10.2 8.5-17.3 0.3-6.8-3.1-13.3-8.5-17.3-3.4-0.3-22.4-2.7-34.3 8.8-7.8 7.4-11.2 19.7-9.5 36z" fill="#00D6C1" p-id="4114"></path><path d="M921.5 385.2l-3.1-1c6.8-18.4 43.2-40.1 44.5-41.1l1.7 3.1c-0.3-0.1-37 21.7-43.1 39z" fill="#00D6C1" p-id="4115"></path><path d="M918.1 371.6l-3.1-1.4c6.1-12.6 21.4-10.9 22.1-10.9l-0.3 3.4c-0.7 0.1-13.6-1.3-18.7 8.9zM941.5 378.8l-2.7-2c4.1-5.4 4.1-12.6 0-18l2.7-2c4.8 6.3 4.8 15.5 0 22z" fill="#00D6C1" p-id="4116"></path></svg>