<svg t="1594705401780" class="icon" viewBox="0 0 1024 1024" version="1.1" xmlns="http://www.w3.org/2000/svg" p-id="9423" width="200" height="200"><path d="M771.01 415.877c0-194.229-157.444-351.724-351.77-351.724-194.229 0-351.676 157.495-351.676 351.724 0 194.23 157.446 351.724 351.676 351.724 194.326 0 351.77-157.495 351.77-351.724zM419.24 679.68c-145.672 0-263.71-118.085-263.71-263.805 0-145.672 118.038-263.805 263.71-263.805 145.77 0 263.804 118.133 263.804 263.805 0 145.722-118.034 263.805-263.804 263.805z" fill="#ffffff" p-id="9424"></path><path d="M933.225 824.77L741.82 633.362c-27.537 45.832-66.072 84.271-112.004 111.809l191.503 191.504c30.947 30.895 81.06 30.895 111.905 0 30.947-30.848 30.947-81.06 0.001-111.907z" fill="#ffffff" p-id="9425"></path></svg>